<svg width="473" height="116" viewBox="0 0 473 116" fill="none" xmlns="http://www.w3.org/2000/svg">
<g filter="url(#filter0_d_3_32)">
<path d="M165.318 93.875L141.412 23.1875L149.521 19.3438H149.99L169.396 78.2188L187.725 19.3438H188.193L196.303 23.1875L173.896 90.0312L165.787 93.875H165.318ZM216.271 92C206.896 92 202.209 87.3125 202.209 77.9375V42.7812L211.115 38.5625H211.584V77.9375C211.584 81.6875 213.146 83.5625 216.271 83.5625H227.053C230.178 83.5625 231.74 81.6875 231.74 77.9375V42.7812L240.646 38.5625H241.115V77.9375C241.115 87.3125 236.428 92 227.053 92H216.271ZM257.521 93.875V23.5625L266.428 19.3438H266.896V89.6562L257.99 93.875H257.521ZM289.49 93.875V48.9688H277.443V48.5L281.24 40.4375H289.49V23.5625L298.396 19.3438H298.865V40.4375H310.912V40.9062L307.115 48.9688H298.865V89.6562L289.959 93.875H289.49ZM333.178 92C323.803 92 319.115 87.3125 319.115 77.9375V42.7812L328.021 38.5625H328.49V77.9375C328.49 81.6875 330.053 83.5625 333.178 83.5625H343.959C347.084 83.5625 348.646 81.6875 348.646 77.9375V42.7812L357.553 38.5625H358.021V77.9375C358.021 87.3125 353.334 92 343.959 92H333.178ZM372.084 93.875V54.5C372.084 45.125 376.771 40.4375 386.146 40.4375H397.865V40.9062L394.115 48.875H386.146C383.021 48.875 381.459 50.75 381.459 54.5V89.6562L372.553 93.875H372.084ZM419.896 92C410.521 92 405.834 87.3125 405.834 77.9375V54.5C405.834 45.125 410.521 40.4375 419.896 40.4375H430.678C440.053 40.4375 444.74 45.125 444.74 54.5V56.9844L415.35 79.7188C415.787 82.2812 417.303 83.5625 419.896 83.5625H430.678C433.803 83.5625 435.365 81.6875 435.365 77.9375V75.4531L444.271 71.2344H444.74V77.9375C444.74 87.3125 440.053 92 430.678 92H419.896ZM415.209 69.9219L435.318 53.7031C435.131 50.4844 433.584 48.875 430.678 48.875H419.896C416.771 48.875 415.209 50.75 415.209 54.5V69.9219Z" fill="#F0F8FF"/>
<path fill-rule="evenodd" clip-rule="evenodd" d="M16.2144 30.3362C0.594538 42.9809 3.21947 46.1421 6.48443 46.1421C12.2446 38.9906 17.1009 40.4416 18.8091 42.0611C21.8578 51.5835 35.8041 55.6213 41.5773 51.5835C41.1672 57.8559 43.3645 71.0904 63.0481 75.1628C63.3667 75.2287 63.7136 75.2793 64.0839 75.3172C66.1586 79.1725 69.8335 84.3282 74.0077 85.6989V99.1892C70.6839 99.4041 62.5211 100.762 60.6045 103.702H80.0942L81.8416 82.0435C83.0132 80.1835 83.9062 77.9069 84.5455 75.7361C88.7662 76.1043 92.7406 76.5765 96.4544 77.1196C113.906 79.6718 125.602 83.7901 130.055 86.0455C101.19 -8.59557 35.7393 6.56255 32.8851 30.3362C25.7758 18.8834 18.8091 25.5642 16.2144 30.3362Z" fill="#F0F8FF"/>
</g>
<defs>
<filter id="filter0_d_3_32" x="0" y="0" width="477" height="124" filterUnits="userSpaceOnUse" color-interpolation-filters="sRGB">
<feFlood flood-opacity="0" result="BackgroundImageFix"/>
<feColorMatrix in="SourceAlpha" type="matrix" values="0 0 0 0 0 0 0 0 0 0 0 0 0 0 0 0 0 0 127 0" result="hardAlpha"/>
<feOffset dy="4"/>
<feGaussianBlur stdDeviation="2"/>
<feComposite in2="hardAlpha" operator="out"/>
<feColorMatrix type="matrix" values="0 0 0 0 0 0 0 0 0 0 0 0 0 0 0 0 0 0 0.25 0"/>
<feBlend mode="normal" in2="BackgroundImageFix" result="effect1_dropShadow_3_32"/>
<feBlend mode="normal" in="SourceGraphic" in2="effect1_dropShadow_3_32" result="shape"/>
</filter>
</defs>
</svg>
