<svg width="28" height="32" viewBox="0 0 28 32" fill="none" xmlns="http://www.w3.org/2000/svg">
<path d="M26.9431 21.9984C26.8264 21.8577 26.7118 21.7171 26.5993 21.5814C25.0524 19.7104 24.1166 18.5812 24.1166 13.2845C24.1166 10.5423 23.4606 8.29234 22.1675 6.60484C21.2141 5.3582 19.9253 4.4125 18.2265 3.71359C18.2046 3.70143 18.1851 3.68548 18.1689 3.66648C17.5578 1.62039 15.8858 0.25 14 0.25C12.1142 0.25 10.4429 1.62039 9.8319 3.66437C9.81562 3.6827 9.79637 3.69815 9.77495 3.71008C5.81073 5.34203 3.88417 8.47305 3.88417 13.2824C3.88417 18.5812 2.94971 19.7104 1.40143 21.5793C1.28893 21.715 1.17432 21.8528 1.0576 21.9963C0.756105 22.3599 0.56508 22.8022 0.507137 23.271C0.449194 23.7398 0.526759 24.2153 0.730651 24.6414C1.16448 25.5555 2.08909 26.1229 3.14448 26.1229H24.8633C25.9138 26.1229 26.8321 25.5562 27.2673 24.6463C27.4721 24.2202 27.5504 23.7442 27.4929 23.2749C27.4355 22.8056 27.2447 22.3626 26.9431 21.9984ZM14 31.75C15.0161 31.7492 16.0129 31.4734 16.8849 30.9518C17.7569 30.4303 18.4715 29.6825 18.9528 28.7877C18.9755 28.7449 18.9867 28.6968 18.9854 28.6483C18.984 28.5999 18.9701 28.5525 18.9451 28.511C18.92 28.4695 18.8846 28.4351 18.8424 28.4113C18.8001 28.3874 18.7524 28.375 18.7039 28.375H9.29753C9.24896 28.3748 9.20117 28.3872 9.15883 28.411C9.11648 28.4348 9.08101 28.4691 9.05588 28.5107C9.03074 28.5523 9.0168 28.5996 9.0154 28.6482C9.01401 28.6967 9.02521 28.7448 9.04792 28.7877C9.52923 29.6824 10.2437 30.4301 11.1155 30.9517C11.9874 31.4732 12.9841 31.7491 14 31.75Z" fill="#F0F8FF"/>
</svg>
