<svg width="26" height="24" viewBox="0 0 26 24" fill="none" xmlns="http://www.w3.org/2000/svg">
<path d="M12.6316 11.3684C13.3292 11.3684 13.8947 10.8028 13.8947 10.1052C13.8947 9.40758 13.3292 8.84204 12.6316 8.84204C11.9339 8.84204 11.3684 9.40758 11.3684 10.1052C11.3684 10.8028 11.9339 11.3684 12.6316 11.3684Z" fill="#1F1E33"/>
<path d="M17.6842 11.3684C18.3818 11.3684 18.9473 10.8028 18.9473 10.1052C18.9473 9.40758 18.3818 8.84204 17.6842 8.84204C16.9866 8.84204 16.421 9.40758 16.421 10.1052C16.421 10.8028 16.9866 11.3684 17.6842 11.3684Z" fill="#1F1E33"/>
<path d="M7.57895 11.3684C8.27658 11.3684 8.84211 10.8028 8.84211 10.1052C8.84211 9.40758 8.27658 8.84204 7.57895 8.84204C6.88133 8.84204 6.3158 9.40758 6.3158 10.1052C6.3158 10.8028 6.88133 11.3684 7.57895 11.3684Z" fill="#1F1E33"/>
<path d="M21.4737 0H3.78947C2.78444 0 1.82058 0.399247 1.10991 1.10991C0.399247 1.82058 0 2.78444 0 3.78947V22.7368C0.000385714 22.9607 0.0602385 23.1804 0.173432 23.3735C0.286626 23.5666 0.449095 23.7261 0.644211 23.8358C0.832997 23.9428 1.04616 23.9993 1.26316 24C1.48987 23.9999 1.71239 23.9389 1.90737 23.8232L7.57895 20.3874C7.78859 20.2626 8.02989 20.2011 8.27368 20.2105H21.4737C22.4787 20.2105 23.4426 19.8113 24.1532 19.1006C24.8639 18.3899 25.2632 17.4261 25.2632 16.4211V3.78947C25.2632 2.78444 24.8639 1.82058 24.1532 1.10991C23.4426 0.399247 22.4787 0 21.4737 0ZM22.7368 16.4211C22.7368 16.7561 22.6038 17.0774 22.3669 17.3142C22.13 17.5511 21.8087 17.6842 21.4737 17.6842H8.27368C7.58378 17.6837 6.90681 17.8715 6.31579 18.2274L2.52632 20.5011V3.78947C2.52632 3.45446 2.6594 3.13317 2.89629 2.89629C3.13317 2.6594 3.45446 2.52632 3.78947 2.52632H21.4737C21.8087 2.52632 22.13 2.6594 22.3669 2.89629C22.6038 3.13317 22.7368 3.45446 22.7368 3.78947V16.4211Z" fill="#1F1E33"/>
</svg>
