<svg width="28" height="24" viewBox="0 0 28 24" fill="none" xmlns="http://www.w3.org/2000/svg">
<path d="M24.6819 2.54248C23.2422 1.10447 21.3336 0.226787 19.301 0.0679796C17.2685 -0.0908282 15.2459 0.479708 13.5987 1.67653C11.8705 0.396051 9.71955 -0.184579 7.57886 0.0515635C5.43818 0.287706 3.46682 1.32308 2.06176 2.94919C0.65671 4.57529 -0.0776688 6.67135 0.00651331 8.81525C0.0906954 10.9591 0.987185 12.9917 2.51545 14.5035L10.9501 22.9194C11.6564 23.6119 12.6077 24 13.5987 24C14.5897 24 15.541 23.6119 16.2473 22.9194L24.6819 14.5035C26.2678 12.914 27.1579 10.764 27.1579 8.52297C27.1579 6.28195 26.2678 4.13196 24.6819 2.54248ZM22.7668 12.6362L14.3321 21.0387C14.2362 21.1352 14.1219 21.2119 13.996 21.2642C13.8701 21.3165 13.7351 21.3434 13.5987 21.3434C13.4623 21.3434 13.3272 21.3165 13.2014 21.2642C13.0755 21.2119 12.9612 21.1352 12.8652 21.0387L4.43057 12.5957C3.36538 11.511 2.76891 10.0539 2.76891 8.5365C2.76891 7.0191 3.36538 5.56202 4.43057 4.47734C5.51602 3.40977 6.97995 2.81115 8.50529 2.81115C10.0306 2.81115 11.4946 3.40977 12.58 4.47734C12.7063 4.60416 12.8565 4.70482 13.022 4.77352C13.1875 4.84221 13.3651 4.87757 13.5444 4.87757C13.7237 4.87757 13.9012 4.84221 14.0667 4.77352C14.2322 4.70482 14.3824 4.60416 14.5087 4.47734C15.5942 3.40977 17.0581 2.81115 18.5834 2.81115C20.1088 2.81115 21.5727 3.40977 22.6582 4.47734C23.738 5.54781 24.354 6.99698 24.3743 8.51443C24.3947 10.0319 23.8176 11.4969 22.7668 12.5957V12.6362Z" fill="#1F1E33"/>
</svg>
