<svg width="4" height="22" viewBox="0 0 4 22" fill="none" xmlns="http://www.w3.org/2000/svg">
<path d="M0 10.6667C0 11.7713 0.895431 12.6667 2 12.6667C3.10457 12.6667 4 11.7713 4 10.6667C4 9.56218 3.10457 8.66675 2 8.66675C0.895431 8.66675 0 9.56218 0 10.6667Z" fill="#1F1E33"/>
<path d="M0 19.3333C0 20.4378 0.89543 21.3333 2 21.3333C3.10457 21.3333 4 20.4378 4 19.3333C4 18.2287 3.10457 17.3333 2 17.3333C0.89543 17.3333 0 18.2287 0 19.3333Z" fill="#1F1E33"/>
<path d="M0 2C0 3.10457 0.895431 4 2 4C3.10457 4 4 3.10457 4 2C4 0.89543 3.10457 0 2 0C0.895431 0 0 0.89543 0 2Z" fill="#1F1E33"/>
</svg>
