<svg width="250" height="181" viewBox="0 0 250 181" fill="none" xmlns="http://www.w3.org/2000/svg">
<path fill-rule="evenodd" clip-rule="evenodd" d="M24.2243 35.5387C-6.7539 60.6093 -1.54798 66.8771 4.92726 66.8771C16.3511 52.6978 25.9825 55.5747 29.3702 58.7856C35.4166 77.6656 63.0757 85.6715 74.5253 77.6656C73.7121 90.1019 78.0699 116.342 117.108 124.416C117.739 124.547 118.427 124.647 119.162 124.722C123.276 132.366 130.565 142.589 138.843 145.306V172.053C132.251 172.479 116.062 175.172 112.261 181H150.914L154.38 138.059C156.703 134.371 158.474 129.857 159.742 125.553C168.113 126.283 175.995 127.219 183.361 128.296C217.972 133.356 241.169 141.522 250 145.993C192.752 -41.6511 62.9471 -11.5972 57.2866 35.5387C43.1869 12.8313 29.3702 26.0773 24.2243 35.5387Z" fill="#F0F8FF"/>
</svg>
