<svg width="18" height="18" viewBox="0 0 18 18" fill="none" xmlns="http://www.w3.org/2000/svg">
<path d="M16.7517 16.6403C16.6025 16.7896 16.4254 16.908 16.2304 16.9888C16.0355 17.0695 15.8266 17.1111 15.6156 17.1111C15.4045 17.1111 15.1956 17.0695 15.0007 16.9888C14.8057 16.908 14.6286 16.7896 14.4795 16.6403L11.6438 13.8046C10.4771 14.5513 9.09837 14.998 7.61035 14.998C3.46875 14.998 0.111328 11.6406 0.111328 7.49902C0.111328 3.35742 3.46875 0 7.61035 0C11.752 0 15.1094 3.35742 15.1094 7.49902C15.1094 8.98704 14.6626 10.3658 13.916 11.5324L16.7517 14.3681C16.9009 14.5173 17.0193 14.6944 17.1001 14.8893C17.1809 15.0843 17.2224 15.2932 17.2224 15.5042C17.2224 15.7152 17.1809 15.9242 17.1001 16.1191C17.0193 16.3141 16.9009 16.4912 16.7517 16.6403ZM7.61035 2.14258C4.65252 2.14258 2.25391 4.54012 2.25391 7.49902C2.25391 10.4579 4.65252 12.8555 7.61035 12.8555C10.5692 12.8555 12.9668 10.4579 12.9668 7.49902C12.9668 4.54012 10.5692 2.14258 7.61035 2.14258Z" fill="#BBD6EE"/>
</svg>
