<svg width="26" height="25" viewBox="0 0 26 25" fill="none" xmlns="http://www.w3.org/2000/svg">
<path d="M25.1787 12.8517L13.9287 0.807471C13.455 0.299203 12.545 0.299203 12.0712 0.807471L0.821242 12.8517C0.659593 13.0248 0.553488 13.2394 0.515773 13.4694C0.478059 13.6994 0.510351 13.935 0.608742 14.1477C0.808742 14.5825 1.25624 14.8619 1.74999 14.8619H4.24999V23.2929C4.24999 23.6124 4.38169 23.9187 4.61611 24.1446C4.85053 24.3705 5.16847 24.4973 5.49999 24.4973H9.24999C9.58151 24.4973 9.89945 24.3705 10.1339 24.1446C10.3683 23.9187 10.5 23.6124 10.5 23.2929V18.4752H15.5V23.2929C15.5 23.6124 15.6317 23.9187 15.8661 24.1446C16.1005 24.3705 16.4185 24.4973 16.75 24.4973H20.5C20.8315 24.4973 21.1495 24.3705 21.3839 24.1446C21.6183 23.9187 21.75 23.6124 21.75 23.2929V14.8619H24.25C24.4921 14.8629 24.7292 14.796 24.9325 14.6694C25.1358 14.5428 25.2965 14.3619 25.395 14.1488C25.4934 13.9357 25.5254 13.6996 25.487 13.4693C25.4486 13.239 25.3415 13.0244 25.1787 12.8517Z" fill="#F0F8FF"/>
</svg>
