<svg width="24" height="23" viewBox="0 0 24 23" fill="none" xmlns="http://www.w3.org/2000/svg">
<path fill-rule="evenodd" clip-rule="evenodd" d="M2 0.644531C1.66848 0.644531 1.35054 0.771426 1.11612 0.9973C0.881696 1.22317 0.75 1.52952 0.75 1.84896V11.4844C0.75 11.8038 0.881696 12.1102 1.11612 12.336C1.35054 12.5619 1.66848 12.6888 2 12.6888H3.25V15.0977C3.25005 15.3358 3.32339 15.5686 3.46075 15.7667C3.5981 15.9647 3.79331 16.119 4.02168 16.2102C4.25006 16.3013 4.50135 16.3251 4.74379 16.2787C4.98623 16.2322 5.20894 16.1176 5.38375 15.9492L8.7675 12.6888H15.75C16.0815 12.6888 16.3995 12.5619 16.6339 12.336C16.8683 12.1102 17 11.8038 17 11.4844V1.84896C17 1.52952 16.8683 1.22317 16.6339 0.9973C16.3995 0.771426 16.0815 0.644531 15.75 0.644531H2Z" fill="#F0F8FF"/>
<path fill-rule="evenodd" clip-rule="evenodd" d="M7.02875 17.7655C7.07041 17.7286 7.11125 17.6909 7.15125 17.6523L9.80375 15.0977H15.75C16.7446 15.0977 17.6984 14.7171 18.4016 14.0394C19.1049 13.3618 19.5 12.4428 19.5 11.4845V6.66675H22C22.3315 6.66675 22.6495 6.79364 22.8839 7.01952C23.1183 7.24539 23.25 7.55174 23.25 7.87118V17.5066C23.25 17.826 23.1183 18.1324 22.8839 18.3583C22.6495 18.5841 22.3315 18.711 22 18.711H20.75V21.1199C20.7499 21.358 20.6766 21.5909 20.5393 21.7889C20.4019 21.9869 20.2067 22.1412 19.9783 22.2324C19.7499 22.3235 19.4986 22.3474 19.2562 22.3009C19.0138 22.2545 18.7911 22.1398 18.6162 21.9714L15.2325 18.711H8.25C7.96508 18.7111 7.68868 18.6174 7.46658 18.4455C7.24448 18.2735 7.09 18.0336 7.02875 17.7655Z" fill="#F0F8FF"/>
</svg>
