<svg width="24" height="23" viewBox="0 0 24 23" fill="none" xmlns="http://www.w3.org/2000/svg">
<path fill-rule="evenodd" clip-rule="evenodd" d="M7 5.49349C7 4.21575 7.52678 2.99035 8.46447 2.08686C9.40215 1.18336 10.6739 0.675781 12 0.675781C13.3261 0.675781 14.5979 1.18336 15.5355 2.08686C16.4732 2.99035 17 4.21575 17 5.49349C17 6.77123 16.4732 7.99663 15.5355 8.90012C14.5979 9.80362 13.3261 10.3112 12 10.3112C10.6739 10.3112 9.40215 9.80362 8.46447 8.90012C7.52678 7.99663 7 6.77123 7 5.49349ZM7 12.7201C5.3424 12.7201 3.75269 13.3545 2.58058 14.4839C1.40848 15.6133 0.75 17.145 0.75 18.7422C0.75 19.7005 1.14509 20.6195 1.84835 21.2972C2.55161 21.9748 3.50544 22.3555 4.5 22.3555H19.5C20.4946 22.3555 21.4484 21.9748 22.1517 21.2972C22.8549 20.6195 23.25 19.7005 23.25 18.7422C23.25 17.145 22.5915 15.6133 21.4194 14.4839C20.2473 13.3545 18.6576 12.7201 17 12.7201H7Z" fill="#F0F8FF"/>
</svg>
