<svg width="26" height="26" viewBox="0 0 26 26" fill="none" xmlns="http://www.w3.org/2000/svg">
<path fill-rule="evenodd" clip-rule="evenodd" d="M10.4563 0.508266C10.2073 0.332723 9.91751 0.218647 9.61221 0.176023C9.30691 0.133399 8.99542 0.163526 8.70501 0.263767C7.34713 0.743328 6.08591 1.4463 4.97751 2.3414C4.7427 2.53349 4.56024 2.77804 4.44607 3.05369C4.3319 3.32934 4.28948 3.62773 4.32251 3.92282C4.41626 4.82975 4.25001 5.70537 3.79751 6.45934C3.34626 7.21452 2.64126 7.79144 1.77876 8.16601C1.49663 8.28631 1.2494 8.47141 1.05872 8.70511C0.868047 8.93881 0.73973 9.21398 0.685006 9.50654C0.436622 10.8772 0.436622 12.2791 0.685006 13.6498C0.801256 14.2965 1.26001 14.7651 1.77876 14.9915C2.64126 15.3649 3.34626 15.943 3.79876 16.697C4.25001 17.4521 4.41626 18.3266 4.32251 19.2335C4.26626 19.7779 4.45626 20.3946 4.97751 20.8149C6.08591 21.71 7.34713 22.413 8.70501 22.8925C8.99525 22.9926 9.3065 23.0226 9.61156 22.98C9.91662 22.9374 10.2062 22.8234 10.455 22.648C11.2238 22.1157 12.095 21.8158 13 21.8158C13.905 21.8158 14.775 22.1157 15.5438 22.648C16.0063 22.9684 16.6563 23.1178 17.295 22.8925C18.6529 22.413 19.9141 21.71 21.0225 20.8149C21.5438 20.3946 21.735 19.7791 21.6775 19.2335C21.5838 18.3266 21.7488 17.4509 22.2025 16.697C22.6538 15.9418 23.3588 15.3661 24.2213 14.9915C24.7388 14.7663 25.1988 14.2965 25.315 13.6498C25.5634 12.2791 25.5634 10.8772 25.315 9.50654C25.2603 9.21398 25.132 8.93881 24.9413 8.70511C24.7506 8.47141 24.5034 8.28631 24.2213 8.16601C23.3588 7.79144 22.6538 7.21452 22.2013 6.45934C21.7488 5.70537 21.5838 4.82975 21.6775 3.92282C21.7105 3.62773 21.6681 3.32934 21.5539 3.05369C21.4398 2.77804 21.2573 2.53349 21.0225 2.3414C19.9141 1.4463 18.6529 0.743328 17.295 0.263767C17.0048 0.163735 16.6935 0.133718 16.3885 0.176339C16.0834 0.21896 15.7938 0.332922 15.545 0.508266C14.775 1.03942 13.9038 1.34052 13 1.34052C12.0963 1.34052 11.225 1.04062 10.4563 0.508266ZM9.25001 11.5782C9.25001 10.6199 9.64509 9.7008 10.3484 9.02318C11.0516 8.34556 12.0054 7.96487 13 7.96487C13.9946 7.96487 14.9484 8.34556 15.6517 9.02318C16.3549 9.7008 16.75 10.6199 16.75 11.5782C16.75 12.5365 16.3549 13.4555 15.6517 14.1331C14.9484 14.8108 13.9946 15.1914 13 15.1914C12.0054 15.1914 11.0516 14.8108 10.3484 14.1331C9.64509 13.4555 9.25001 12.5365 9.25001 11.5782Z" fill="#F0F8FF"/>
</svg>
